#!OML:ASF G:\JayActor3\Patient Classification 1\Patient 1\Session 5\male.ASF
:FULLY-SPECIFIED
:DEGREES
311
root 41.3442 16.4805 -3.58704 64.0893 -89.8865 -63.2101
lowerback -1.14794 -1.47952 0.00468068
upperback 1.71331 -1.97942 -0.112665
thorax 2.39531 -0.990198 -0.181778
lowerneck -4.93897 0.356104 2.21764
upperneck -1.5728 0.307225 1.50949
head 0.328133 0.134694 0.101013
rclavicle -9.47954e-015 1.04362e-015
rhumerus -33.4018 -10.9135 -82.5242
rradius 25.0936
rwrist 3.96103
rhand -18.7402 -8.38786
rfingers 7.12502
rthumb 7.55589 -38.2329
lclavicle -9.47954e-015 1.04362e-015
lhumerus -35.277 7.09349 83.8147
lradius 24.725
lwrist 14.7877
lhand -17.1401 14.4953
lfingers 7.12502
lthumb 9.10015 44.279
rfemur -26.9508 8.09882 21.5963
rtibia 34.2989
rfoot -14.974 -15.2238
rtoes 1.63232
lfemur 18.4816 9.15613 -14.891
ltibia 23.3655
lfoot 10.8964 9.62725
ltoes -24.1499
312
root 41.2019 16.4987 -3.62562 12.2419 -89.8305 -11.5134
lowerback -1.19535 -1.49512 -0.0648568
upperback 1.70504 -1.99761 -0.150544
thorax 2.41446 -1.00007 -0.183546
lowerneck -4.90553 0.355317 2.21783
upperneck -1.43792 0.306534 1.53309
head 0.364064 0.13708 0.108136
rclavicle 8.95152e-015 8.94531e-016
rhumerus -33.3588 -10.9063 -82.5897
rradius 25.1051
rwrist 3.94219
rhand -18.7599 -8.40042
rfingers 7.12502
rthumb 7.53686 -38.2461
lclavicle 8.95152e-015 8.94531e-016
lhumerus -35.4676 6.96534 83.7887
lradius 25.0094
lwrist 14.9867
lhand -17.1486 14.4799
lfingers 7.12502
lthumb 9.09191 44.2639
rfemur -26.1957 8.06017 21.7751
rtibia 34.2775
rfoot -15.1627 -15.1793
rtoes 2.32332
lfemur 17.063 9.13059 -14.6808
ltibia 26.3926
lfoot 12.255 9.66828
ltoes -22.5809
313
root 41.0624 16.5161 -3.66184 14.1951 -89.7121 -13.6361
lowerback -1.21146 -1.51029 -0.000293254
upperback 1.70942 -2.019 -0.168556
thorax 2.4251 -1.00938 -0.239325
lowerneck -4.87188 0.353109 2.21337
upperneck -1.31581 0.304162 1.55824
head 0.396048 0.138398 0.116459
rclavicle -1.35919e-014 -5.96354e-016
rhumerus -33.2819 -10.8846 -82.6659
rradius 25.114
rwrist 3.92018
rhand -18.7768 -8.40762
rfingers 7.12502
rthumb 7.52062 -38.2539
lclavicle -1.35919e-014 -5.96354e-016
lhumerus -35.6169 6.84708 83.7628
lradius 25.2818
lwrist 15.1669
lhand -17.1744 14.4351
lfingers 7.12502
lthumb 9.06708 44.2203
rfemur -25.3811 7.95868 22.0666
rtibia 34.1783
rfoot -15.3302 -15.0984
rtoes 2.94982
lfemur 15.6479 9.02608 -14.3993
ltibia 29.3639
lfoot 13.7175 9.74112
ltoes -20.6141
314
root 40.9254 16.5323 -3.69571 28.2158 -89.5524 -27.843
lowerback -1.19586 -1.5264 0.202323
upperback 1.72036 -2.04551 -0.164175
thorax 2.42058 -1.01902 -0.348638
lowerneck -4.8349 0.349919 2.20378
upperneck -1.19972 0.300798 1.58635
head 0.425638 0.139127 0.126511
rclavicle -5.23052e-015 0
rhumerus -33.1844 -10.8501 -82.7472
rradius 25.1202
rwrist 3.90035
rhand -18.7811 -8.40655
rfingers 7.12502
rthumb 7.51642 -38.253
lclavicle -5.23052e-015 0
lhumerus -35.7402 6.74409 83.7329
lradius 25.5451
lwrist 15.3306
lhand -17.2189 14.384
lfingers 7.12502
lthumb 9.02408 44.171
rfemur -24.5083 7.80079 22.4717
rtibia 33.9978
rfoot -15.474 -14.9875
rtoes 3.5215
lfemur 14.2268 8.84369 -14.0408
ltibia 32.2849
lfoot 15.294 9.84941
ltoes -18.2107
315
root 40.7904 16.5472 -3.72734 40.1348 -89.3296 -39.9529
lowerback -1.16132 -1.54203 0.511836
upperback 1.73448 -2.07423 -0.142546
thorax 2.40538 -1.02806 -0.499536
lowerneck -4.80127 0.342546 2.19267
upperneck -1.08868 0.291818 1.60961
head 0.454246 0.136923 0.135252
rclavicle -1.37907e-015 5.96354e-016
rhumerus -33.0707 -10.7979 -82.8328
rradius 25.1341
rwrist 3.87243
rhand -18.7736 -8.41867
rfingers 7.12502
rthumb 7.52364 -38.2649
lclavicle -1.37907e-015 5.96354e-016
lhumerus -35.8376 6.65966 83.7006
lradius 25.7975
lwrist 15.4784
lhand -17.2718 14.3462
lfingers 7.12502
lthumb 8.9731 44.1354
rfemur -23.5996 7.59249 22.9554
rtibia 33.7481
rfoot -15.5997 -14.8484
rtoes 4.0476
lfemur 12.7872 8.59245 -13.6375
ltibia 35.1466
lfoot 17.0153 9.99359
ltoes -15.1721
316
root 40.6575 16.5608 -3.75726 48.2753 -89.051 -48.2787
lowerback -1.11946 -1.5574 0.893026
upperback 1.748 -2.10437 -0.106184
thorax 2.38326 -1.03674 -0.675147
lowerneck -4.76973 0.332781 2.17694
upperneck -0.981108 0.279816 1.63013
head 0.482146 0.133135 0.143872
rclavicle 2.29845e-016 -3.47873e-015
rhumerus -32.9517 -10.713 -82.9229
rradius 25.1662
rwrist 3.82639
rhand -18.7545 -8.42745
rfingers 7.12502
rthumb 7.54215 -38.273
lclavicle 2.29845e-016 -3.47873e-015
lhumerus -35.9153 6.60111 83.6634
lradius 26.0396
lwrist 15.619
lhand -17.3315 14.3214
lfingers 7.12502
lthumb 8.91548 44.113
rfemur -22.6816 7.35258 23.4885
rtibia 33.4529
rfoot -15.7211 -14.6881
rtoes 4.53664
lfemur 11.3225 8.28444 -13.2152
ltibia 37.9317
lfoot 18.7675 10.1761
ltoes -11.688
317
root 40.5266 16.5729 -3.78594 53.0073 -88.7493 -53.1785
lowerback -1.08045 -1.57259 1.29336
upperback 1.75509 -2.13457 -0.0619936
thorax 2.35551 -1.04531 -0.853345
lowerneck -4.73845 0.319163 2.15166
upperneck -0.872754 0.263187 1.64741
head 0.510343 0.127054 0.152995
rclavicle -3.82971e-014 7.35503e-015
rhumerus -32.8362 -10.585 -83.0159
rradius 25.2218
rwrist 3.74353
rhand -18.7379 -8.43431
rfingers 7.12502
rthumb 7.55816 -38.2793
lclavicle -3.82971e-014 7.35503e-015
lhumerus -35.9821 6.57393 83.6245
lradius 26.2742
lwrist 15.7574
lhand -17.3974 14.3102
lfingers 7.12502
lthumb 8.85191 44.1045
rfemur -21.7831 7.09093 24.0235
rtibia 33.1369
rfoot -15.8479 -14.5122
rtoes 4.97409
lfemur 9.83041 7.93362 -12.819
ltibia 40.6218
lfoot 20.2972 10.3896
ltoes -8.39878
318
root 40.3978 16.5835 -3.81377 55.399 -88.4671 -55.7153
lowerback -1.05389 -1.58229 1.66179
upperback 1.75756 -2.15654 -0.0205567
thorax 2.33105 -1.05039 -1.01655
lowerneck -4.70992 0.299015 2.12998
upperneck -0.770033 0.237743 1.65164
head 0.537288 0.116345 0.157408
rclavicle 4.28629e-016 -7.15625e-015
rhumerus -32.7257 -10.4298 -83.1073
rradius 25.3098
rwrist 3.63334
rhand -18.7228 -8.45482
rfingers 7.12502
rthumb 7.57276 -38.2992
lclavicle 4.28629e-016 -7.15625e-015
lhumerus -36.0304 6.568 83.5856
lradius 26.4942
lwrist 15.9088
lhand -17.454 14.2797
lfingers 7.12502
lthumb 8.79727 44.0764
rfemur -20.9222 6.82117 24.5138
rtibia 32.8196
rfoot -15.9906 -14.3241
rtoes 5.38536
lfemur 8.31762 7.55946 -12.4938
ltibia 43.199
lfoot 21.4166 10.592
ltoes -5.67351
319
root 40.2713 16.593 -3.84093 56.6469 -88.2078 -57.0886
lowerback -1.03063 -1.58773 1.99305
upperback 1.75413 -2.17175 0.0203433
thorax 2.30377 -1.0529 -1.1593
lowerneck -4.68397 0.274594 2.10349
upperneck -0.667644 0.206811 1.65206
head 0.564577 0.102855 0.161353
rclavicle -3.73653e-015 -1.49089e-015
rhumerus -32.6213 -10.2435 -83.1942
rradius 25.4244
rwrist 3.49721
rhand -18.7086 -8.47889
rfingers 7.12502
rthumb 7.58645 -38.3228
lclavicle -3.73653e-015 -1.49089e-015
lhumerus -36.0636 6.58684 83.5493
lradius 26.6988
lwrist 16.0769
lhand -17.4999 14.219
lfingers 7.12502
lthumb 8.75297 44.0175
rfemur -20.1013 6.54342 24.9618
rtibia 32.5101
rfoot -16.147 -14.1312
rtoes 5.74932
lfemur 6.79678 7.17473 -12.2314
ltibia 45.6491
lfoot 21.8937 10.7315
ltoes -3.95053
320
root 40.1472 16.6013 -3.86725 57.4765 -87.9631 -58.0381
lowerback -1.0006 -1.58712 2.30053
upperback 1.75096 -2.17813 0.0637205
thorax 2.27418 -1.0516 -1.28575
lowerneck -4.65893 0.246609 2.07618
upperneck -0.572865 0.171286 1.64659
head 0.589682 0.0868604 0.16355
rclavicle 3.1029e-015 -2.78299e-015
rhumerus -32.5227 -10.0299 -83.2764
rradius 25.5703
rwrist 3.33301
rhand -18.7015 -8.52089
rfingers 7.12502
rthumb 7.59326 -38.3646
lclavicle 3.1029e-015 -2.78299e-015
lhumerus -36.0753 6.62468 83.5204
lradius 26.8816
lwrist 16.2625
lhand -17.5293 14.1289
lfingers 7.12502
lthumb 8.72454 43.9286
rfemur -19.3042 6.25808 25.384
rtibia 32.2102
rfoot -16.3319 -13.9308
rtoes 6.12941
lfemur 5.29699 6.78541 -12.0106
ltibia 47.9573
lfoot 21.7138 10.7862
ltoes -3.08737
321
root 40.0254 16.6083 -3.89255 58.3117 -87.7252 -58.9949
lowerback -0.956347 -1.57856 2.59978
upperback 1.75147 -2.17336 0.111316
thorax 2.24133 -1.04508 -1.40258
lowerneck -4.63579 0.21334 2.05214
upperneck -0.487274 0.128609 1.63657
head 0.612273 0.0670547 0.163683
rclavicle -2.03444e-015 -2.08724e-015
rhumerus -32.429 -9.79152 -83.3537
rradius 25.7469
rwrist 3.14613
rhand -18.6864 -8.57665
rfingers 7.12502
rthumb 7.60787 -38.4198
lclavicle -2.03444e-015 -2.08724e-015
lhumerus -36.0643 6.66696 83.5056
lradius 27.0448
lwrist 16.4696
lhand -17.5454 14.0257
lfingers 7.12502
lthumb 8.70903 43.826
rfemur -18.5219 5.96463 25.7961
rtibia 31.9169
rfoot -16.5189 -13.7321
rtoes 6.46041
lfemur 3.83172 6.39863 -11.811
ltibia 50.1113
lfoot 20.9369 10.7029
ltoes -2.95623
322
root 39.9054 16.6147 -3.91714 59.3006 -87.5039 -60.1091
lowerback -0.902896 -1.55993 2.8828
upperback 1.75826 -2.15449 0.160547
thorax 2.21116 -1.03188 -1.50816
lowerneck -4.60976 0.177031 2.0342
upperneck -0.416668 0.0818202 1.62339
head 0.629737 0.0448523 0.161757
rclavicle -1.77819e-014 1.47101e-014
rhumerus -32.3393 -9.53809 -83.4259
rradius 25.9484
rwrist 2.95091
rhand -18.6577 -8.63207
rfingers 7.12502
rthumb 7.63554 -38.4742
lclavicle -1.77819e-014 1.47101e-014
lhumerus -36.0281 6.70879 83.5053
lradius 27.1862
lwrist 16.6847
lhand -17.5606 13.9293
lfingers 7.12502
lthumb 8.69439 43.7303
rfemur -17.7489 5.67559 26.1946
rtibia 31.6262
rfoot -16.7031 -13.5431
rtoes 6.74544
lfemur 2.40992 6.02266 -11.6333
ltibia 52.0975
lfoot 19.7042 10.5011
ltoes -3.27237
